#!OML:ASF H:\Punching\Project 1\Capture day 1\Session 1\female.ASF
:FULLY-SPECIFIED
:DEGREES
1586
root 3.67956 14.4711 -1.82875 17.8731 17.0989 3.37296
lowerback -4.82234 -0.161177 -0.408015
upperback -7.90186 -0.125823 0.836923
thorax -5.4897 0.00898386 1.09525
lowerneck -15.1211 1.26173 7.38764
upperneck 32.2496 0.805736 -3.13505
head 13.4419 0.900191 -2.3852
rclavicle 4.89259e-014 -1.03368e-014
rhumerus 15.0218 14.4229 -68.941
rradius 130.082
rwrist -16.0042
rhand -32.9196 10.2866
rfingers 7.12502
rthumb -6.13661 -19.6045
lclavicle 4.89259e-014 -1.03368e-014
lhumerus 5.44915 -25.0847 71.1982
lradius 135.36
lwrist -1.34526
lhand -29.9639 -10.7495
lfingers 7.12502
lthumb -3.28258 19.205
rfemur -52.951 -9.50347 3.93996
rtibia 48.9214
rfoot -3.90376 -15.5014
rtoes -0.905973
lfemur -1.32867 -16.3555 -16.4954
ltibia 21.2425
lfoot -35.635 28.8113
ltoes -4.10077
1587
root 3.68634 14.473 -1.83451 17.8634 16.8275 3.32494
lowerback -4.75431 -0.148813 -0.380589
upperback -7.90764 -0.109072 0.867476
thorax -5.53479 0.0166993 1.1119
lowerneck -15.1315 1.32665 7.48594
upperneck 32.1729 0.891957 -3.20781
head 13.4183 0.937354 -2.41644
rclavicle -2.5109e-014 1.35174e-014
rhumerus 15.053 14.4991 -68.8418
rradius 130.12
rwrist -16.0497
rhand -32.8429 10.3822
rfingers 7.12502
rthumb -6.06259 -19.5111
lclavicle -2.5109e-014 1.35174e-014
lhumerus 5.38652 -25.0888 71.2928
lradius 135.35
lwrist -1.35165
lhand -29.7501 -10.5714
lfingers 7.12502
lthumb -3.07609 19.3862
rfemur -53.082 -9.45656 3.99722
rtibia 48.8491
rfoot -3.7286 -15.2534
rtoes -1.12909
lfemur -1.28843 -16.2461 -16.5781
ltibia 21.2665
lfoot -35.7201 28.8631
ltoes -4.00401
1588
root 3.69276 14.4737 -1.84053 17.8591 16.5128 3.30394
lowerback -4.6736 -0.135452 -0.38192
upperback -7.9097 -0.0910652 0.892455
thorax -5.58314 0.026412 1.13884
lowerneck -15.1358 1.40055 7.59495
upperneck 32.0765 0.993358 -3.29605
head 13.3863 0.979843 -2.45288
rclavicle -2.64135e-014 -2.62396e-014
rhumerus 15.0889 14.56 -68.7313
rradius 130.167
rwrist -16.106
rhand -32.7437 10.4642
rfingers 7.12502
rthumb -5.96681 -19.4318
lclavicle -2.64135e-014 -2.62396e-014
lhumerus 5.342 -25.0989 71.373
lradius 135.335
lwrist -1.34554
lhand -29.5548 -10.3789
lfingers 7.12502
lthumb -2.88748 19.5813
rfemur -53.2608 -9.43673 4.04587
rtibia 48.8176
rfoot -3.54473 -14.9423
rtoes -1.37591
lfemur -1.23525 -16.1188 -16.6982
ltibia 21.2823
lfoot -35.7729 28.928
ltoes -3.99162
1589
root 3.69861 14.4735 -1.84648 17.8604 16.1615 3.30742
lowerback -4.58462 -0.123277 -0.410532
upperback -7.91076 -0.0747246 0.912798
thorax -5.63513 0.0366584 1.17622
lowerneck -15.1243 1.48426 7.71747
upperneck 31.9605 1.11222 -3.40279
head 13.3442 1.02871 -2.4958
rclavicle -2.82647e-014 2.38542e-015
rhumerus 15.1171 14.6035 -68.6143
rradius 130.215
rwrist -16.1578
rhand -32.6471 10.5095
rfingers 7.12502
rthumb -5.87347 -19.3891
lclavicle -2.82647e-014 2.38542e-015
lhumerus 5.31134 -25.1204 71.4421
lradius 135.318
lwrist -1.32498
lhand -29.3956 -10.1696
lfingers 7.12502
lthumb -2.73377 19.7926
rfemur -53.4875 -9.44547 4.09242
rtibia 48.8314
rfoot -3.3524 -14.5775
rtoes -1.63525
lfemur -1.16717 -15.9833 -16.8501
ltibia 21.2842
lfoot -35.8034 29.0002
ltoes -4.0309
1590
root 3.70373 14.4724 -1.85192 17.8679 15.7799 3.3309
lowerback -4.49198 -0.114253 -0.462872
upperback -7.91374 -0.0626446 0.930645
thorax -5.69124 0.0460654 1.22431
lowerneck -15.0937 1.57774 7.85555
upperneck 31.8313 1.25029 -3.53395
head 13.2945 1.08443 -2.54774
rclavicle 3.02028e-014 -3.97569e-015
rhumerus 15.1331 14.631 -68.493
rradius 130.256
rwrist -16.1943
rhand -32.5669 10.4963
rfingers 7.12502
rthumb -5.79612 -19.4045
lclavicle 3.02028e-014 -3.97569e-015
lhumerus 5.28626 -25.1547 71.5043
lradius 135.301
lwrist -1.28342
lhand -29.2575 -9.92004
lfingers 7.12502
lthumb -2.6004 20.0439
rfemur -53.763 -9.48712 4.14722
rtibia 48.8943
rfoot -3.1553 -14.1647
rtoes -1.89944
lfemur -1.08366 -15.8422 -17.0259
ltibia 21.269
lfoot -35.8161 29.0749
ltoes -4.11909
1591
root 3.70793 14.4707 -1.85647 17.8821 15.3721 3.36645
lowerback -4.40251 -0.109649 -0.533509
upperback -7.91956 -0.0564565 0.949552
thorax -5.74853 0.0536502 1.28376
lowerneck -15.0434 1.68216 8.00942
upperneck 31.6944 1.41058 -3.69332
head 13.2398 1.14805 -2.60989
rclavicle -3.05134e-014 -1.59028e-015
rhumerus 15.1385 14.6548 -68.3687
rradius 130.288
rwrist -16.2013
rhand -32.5214 10.4029
rfingers 7.12502
rthumb -5.75219 -19.499
lclavicle -3.05134e-014 -1.59028e-015
lhumerus 5.26356 -25.2018 71.5643
lradius 135.28
lwrist -1.24201
lhand -29.1509 -9.6333
lfingers 7.12502
lthumb -2.49747 20.3318
rfemur -54.0916 -9.55621 4.21903
rtibia 49.0115
rfoot -2.95333 -13.7153
rtoes -2.1318
lfemur -0.983974 -15.7046 -17.2165
ltibia 21.2318
lfoot -35.8088 29.1618
ltoes -4.27253
1592
root 3.71105 14.4686 -1.85977 17.9057 14.9408 3.40725
lowerback -4.32134 -0.109482 -0.619672
upperback -7.93001 -0.0560214 0.973451
thorax -5.80604 0.0594966 1.35716
lowerneck -14.9769 1.79755 8.18074
upperneck 31.5552 1.59487 -3.88818
head 13.1836 1.2198 -2.68525
rclavicle 1.41137e-014 9.54166e-015
rhumerus 15.1305 14.6777 -68.2386
rradius 130.307
rwrist -16.1895
rhand -32.5081 10.259
rfingers 7.12502
rthumb -5.73931 -19.6433
lclavicle 1.41137e-014 9.54166e-015
lhumerus 5.24584 -25.2555 71.6305
lradius 135.256
lwrist -1.20183
lhand -29.0756 -9.33427
lfingers 7.12502
lthumb -2.42472 20.6317
rfemur -54.4793 -9.64705 4.31589
rtibia 49.1864
rfoot -2.74403 -13.2388
rtoes -2.32926
lfemur -0.871797 -15.5791 -17.4144
ltibia 21.1735
lfoot -35.7956 29.2631
ltoes -4.46417
1593
root 3.71299 14.4658 -1.86045 17.9409 14.4792 3.45341
lowerback -4.26515 -0.111521 -0.727422
upperback -7.93714 -0.0584574 1.00089
thorax -5.84583 0.0651966 1.44629
lowerneck -14.906 1.91867 8.37601
upperneck 31.4096 1.79519 -4.12787
head 13.1266 1.29555 -2.77982
rclavicle -2.98177e-015 3.10104e-014
rhumerus 15.1252 14.6989 -68.1046
rradius 130.307
rwrist -16.1669
rhand -32.5059 10.0701
rfingers 7.12502
rthumb -5.73714 -19.8322
lclavicle -2.98177e-015 3.10104e-014
lhumerus 5.25351 -25.3074 71.6991
lradius 135.228
lwrist -1.156
lhand -29.0057 -9.09679
lfingers 7.12502
lthumb -2.35725 20.8699
rfemur -54.9326 -9.75297 4.4385
rtibia 49.4257
rfoot -2.52719 -12.7381
rtoes -2.49392
lfemur -0.741991 -15.4682 -17.6244
ltibia 21.094
lfoot -35.792 29.3872
ltoes -4.67968
1594
root 3.71349 14.4624 -1.85943 17.9902 13.9941 3.49853
lowerback -4.22171 -0.119907 -0.852179
upperback -7.94537 -0.0690235 1.03821
thorax -5.87941 0.0681629 1.55532
lowerneck -14.8587 2.05717 8.58745
upperneck 31.2813 2.02516 -4.40171
head 13.0863 1.38215 -2.88647
rclavicle -1.42628e-014 -4.13472e-014
rhumerus 15.118 14.7295 -67.9669
rradius 130.294
rwrist -16.1514
rhand -32.5007 9.88648
rfingers 7.12502
rthumb -5.73219 -20.016
lclavicle -1.42628e-014 -4.13472e-014
lhumerus 5.27244 -25.3464 71.7783
lradius 135.201
lwrist -1.11578
lhand -28.946 -8.83465
lfingers 7.12502
lthumb -2.29954 21.1327
rfemur -55.4578 -9.86838 4.59221
rtibia 49.7314
rfoot -2.29885 -12.2266
rtoes -2.60982
lfemur -0.607052 -15.3782 -17.8361
ltibia 20.997
lfoot -35.7964 29.5399
ltoes -4.91055
1595
root 3.71246 14.4581 -1.85634 18.0531 13.4853 3.54451
lowerback -4.19619 -0.132104 -0.991999
upperback -7.9577 -0.0844788 1.07963
thorax -5.90707 0.0697457 1.67713
lowerneck -14.8177 2.20789 8.81995
upperneck 31.1651 2.27666 -4.70759
head 13.0565 1.47697 -3.00636
rclavicle 5.23052e-015 2.46493e-014
rhumerus 15.0976 14.7562 -67.8279
rradius 130.265
rwrist -16.1617
rhand -32.4874 9.74575
rfingers 7.12502
rthumb -5.71931 -20.1571
lclavicle 5.23052e-015 2.46493e-014
lhumerus 5.30267 -25.3759 71.875
lradius 135.18
lwrist -1.06694
lhand -28.8688 -8.56042
lfingers 7.12502
lthumb -2.22499 21.4077
rfemur -56.0561 -9.99272 4.77712
rtibia 50.1066
rfoot -2.05735 -11.7079
rtoes -2.69625
lfemur -0.466355 -15.3047 -18.0527
ltibia 20.8875
lfoot -35.8135 29.7231
ltoes -5.1596
1596
root 3.70981 14.4524 -1.85115 18.1311 12.9537 3.59523
lowerback -4.1922 -0.147604 -1.14572
upperback -7.98173 -0.104187 1.12044
thorax -5.93492 0.0701715 1.80619
lowerneck -14.7565 2.36947 9.06789
upperneck 31.0604 2.54763 -5.03138
head 13.0313 1.58061 -3.13325
rclavicle -1.51076e-014 -2.38542e-015
rhumerus 15.0389 14.7787 -67.6929
rradius 130.235
rwrist -16.2007
rhand -32.4578 9.66483
rfingers 7.12502
rthumb -5.69078 -20.2388
lclavicle -1.51076e-014 -2.38542e-015
lhumerus 5.3288 -25.4051 71.997
lradius 135.17
lwrist -1.006
lhand -28.7636 -8.23087
lfingers 7.12502
lthumb -2.1234 21.7383
rfemur -56.7266 -10.12 4.98506
rtibia 50.5513
rfoot -1.80894 -11.1893
rtoes -2.73354
lfemur -0.32627 -15.2478 -18.2779
ltibia 20.7751
lfoot -35.8527 29.9373
ltoes -5.41226
1597
root 3.70534 14.4448 -1.84391 18.2222 12.4013 3.64805
lowerback -4.20617 -0.16545 -1.30766
upperback -8.02428 -0.126883 1.15843
thorax -5.97231 0.0698565 1.93706
lowerneck -14.6586 2.53978 9.32988
upperneck 30.9682 2.83445 -5.36413
head 13.0076 1.69285 -3.26402
rclavicle 1.93442e-014 -3.97569e-015
rhumerus 14.9196 14.8031 -67.5717
rradius 130.206
rwrist -16.2504
rhand -32.4154 9.65497
rfingers 7.12502
rthumb -5.64984 -20.2497
lclavicle 1.93442e-014 -3.97569e-015
lhumerus 5.34283 -25.4461 72.1545
lradius 135.168
lwrist -0.942472
lhand -28.6555 -7.86776
lfingers 7.12502
lthumb -2.01902 22.1024
rfemur -57.4631 -10.2403 5.21335
rtibia 51.0643
rfoot -1.56541 -10.6839
rtoes -2.6817
lfemur -0.186995 -15.2088 -18.5089
ltibia 20.6646
lfoot -35.9249 30.1779
ltoes -5.64739
